<svg width="1024" height="1024" viewBox="0 0 1024 1024" fill="none" xmlns="http://www.w3.org/2000/svg">
<g clip-path="url(#clip0_22_6)">
<path d="M429.28 732C394.11 735.42 357.16 729.44 327.33 715.49C297.75 701.67 273.79 676.98 264.04 650.28C261.24 642.6 258 630.42 258 627.56C258 624.76 284.8 610.29 304.04 602.69C362.34 579.68 433.4 575.11 493.5 590.51C515.51 596.16 530.41 602.04 549.55 612.66L559.6 618.24L558.89 623.87C553.85 663.85 527.28 697.69 485.8 716.93C469.92 724.31 447.82 730.19 429.28 732ZM609.13 624.65C605.07 626.49 601.51 628 601.22 628C600.29 628 601.9 598.92 603.52 586.47C605.07 574.58 607.74 562.52 607.91 566.67C608.24 574.62 610.88 573.52 617.03 562.85C626.34 546.72 639.44 535.99 654.02 532.56C673.44 527.98 691.79 533.75 707.78 549.47C712.33 553.95 716.2 557.47 716.37 557.3C717.18 556.48 721.12 575.85 722.41 587C724 600.73 725.57 628 724.78 628C724.5 628 720.45 626.21 715.78 624.02C698.64 615.98 678.34 612.31 656.57 613.3C638.68 614.12 625.25 617.33 609.13 624.65ZM162 625.18C157.88 626.84 153.94 628.43 153.25 628.71C149.69 630.15 155 581.03 159.96 566.63C161.68 561.61 165.9 553.1 164.48 557.5C164.13 558.6 163.59 561.76 163.3 564.53C162.88 568.5 163.13 569.86 164.47 570.97C166.98 573.06 168.95 571.38 173.06 563.66C184.5 542.12 206.32 534.99 225.48 546.53C228.54 548.37 230.78 549.46 230.46 548.94C230.14 548.42 230.11 548 230.39 548C232.31 548 237.21 564.3 238.96 576.5C240.2 585.18 241.58 629 240.61 629C240.22 629 238.59 628.32 236.98 627.49C232.52 625.18 221.13 621.31 215.2 620.09C207.31 618.47 186.19 618.74 177.21 620.58C172.97 621.45 166.12 623.52 162 625.18ZM579.56 457.89C578.73 468.01 577.85 476.48 577.61 476.72C576.66 477.67 568.74 469.38 564.5 462.99C547.36 437.21 550.49 404 571.88 384.8C577.41 379.82 585.33 375.46 590.76 374.39L594.01 373.75L591.05 380.12C585.23 392.66 583.02 402.89 582.01 421.97C581.49 431.61 580.39 447.78 579.56 457.89ZM753.64 470.75C750.85 473.64 748.22 476 747.78 476C747.35 476 746.99 474.99 746.97 473.75C746.95 472.51 746.51 465.65 745.97 458.5C745.44 451.35 744.57 436.18 744.03 424.79C742.93 401.21 741.61 394.23 735.98 382.22C733.79 377.55 732 373.59 732 373.42C732 372.28 742.67 377.05 748.12 380.63C763.5 390.73 771.87 409.32 770.76 430.87C769.96 446.44 764.23 459.79 753.64 470.75ZM707.68 344.92C708.01 347.72 708.1 349.97 707.89 349.93C707.68 349.9 704.8 348.33 701.5 346.45C694.7 342.57 683.34 338.6 674.57 337.05C658.43 334.19 639.27 337.62 624.27 346.06C621.39 347.68 618.87 349 618.67 349C618.47 349 618.71 346.43 619.2 343.29C622.09 324.86 642.63 308.95 663.46 309.01C670.38 309.04 680.36 311.53 686.16 314.68C696.81 320.48 706.37 333.92 707.68 344.92ZM292.07 637.37C293.21 638.81 294.99 640 296.02 640C297.05 640 303.41 637.28 310.16 633.96C323.85 627.22 341.96 621.11 358.5 617.65C368.24 615.62 369.67 615.05 371 612.68C372.34 610.29 372.33 609.7 370.97 607.25C368.83 603.41 364.38 603.26 349.59 606.55C320.84 612.93 290 626.88 290 633.5C290 634.18 290.93 635.92 292.07 637.37Z" fill="#0CB8BB"/>
<path d="M678.54 808.47C671.19 810.36 656.55 810.33 648.64 808.42C634.2 804.92 621.14 794.43 613.83 780.47C609.96 773.07 604.88 757.59 602.93 747.27C601.89 741.82 601.33 740.8 598.38 739.06C594.29 736.65 591.5 732.27 589.96 725.83L588.8 721H508.29L498.89 725.9C482.39 734.52 463.15 740.7 440.46 744.68C426.5 747.12 390.61 747.09 376.5 744.61C352.72 740.45 334.2 734.58 315.77 725.36L307.04 721H244.27L243.09 731.75C240.32 756.99 237.2 769.29 231.19 778.59C226.56 785.74 222.32 789.48 215.02 792.84C205.36 797.28 188.66 796.88 178.99 791.99C173.59 789.25 165.19 779.71 162.05 772.74C153.7 754.24 149.38 715.96 150.14 667.12L150.5 644H148.2C144.37 644 140.29 641.26 139.11 637.89C136.77 631.16 141.38 583.98 146.04 567C150.97 549.02 161.55 533.23 173.43 526.1C203.55 508.01 238.98 522.39 248.48 556.55C249.39 559.82 250.36 563.16 250.62 563.97C250.9 564.83 252.88 561.87 255.31 556.97C261.43 544.61 268.35 534.8 278.28 524.38L287.07 515.18L288.51 506.34C295.18 465.56 318.1 434.48 354.5 416.87C394.29 397.62 438.82 400.16 474.31 423.7C490.06 434.14 505.71 452.43 513.7 469.73C517.29 477.5 523 497.93 523 503.01C523 505.23 524.29 506.85 529.25 510.89C544.74 523.49 559.9 544.94 566.35 563.38C567.62 567.02 568.88 570.21 569.14 570.47C569.39 570.73 571.08 554.42 572.88 534.22C574.69 514.02 576.39 496.33 576.67 494.9C577.12 492.63 576.38 491.73 570.69 487.67C534.24 461.66 530.25 405.77 562.72 376.02C568.5 370.72 578.42 364.84 585.42 362.56C587 362.04 586.46 361.46 582.42 359.35C575.14 355.53 571.83 352.81 557.42 338.84C542.43 324.33 539.92 323.04 530.37 325.03C526.81 325.77 524.69 326.75 524.36 327.83C521.53 337.1 516.46 341.34 508.19 341.33C501.78 341.32 497.25 339.4 494.06 335.35L491.95 332.67L483.73 334.37C479.2 335.31 471.45 336.95 466.5 338.01C415.2 349 411.78 349.41 406.14 345.3C402.4 342.58 399 335.41 399 330.24C399 323.61 402.74 317.22 408.32 314.34C410.92 312.99 436.02 309.24 478.5 303.84C491.53 302.19 495.96 301.26 497.47 299.85C498.13 299.23 498.7 298.91 498.83 298.47C499.1 297.51 497.29 295.97 489.81 289.59C488.71 288.66 487.5 287.63 486.16 286.48C476.49 278.21 475.68 277.72 473.66 279.02C462.41 286.22 450.64 289.64 441 288.5C418.64 285.86 403.36 271.8 399.71 250.52C396.53 231.96 406.84 211.52 423.81 202.72C437.65 195.54 451.69 195.07 464.45 201.38C486.38 212.22 496.08 238.04 486.92 261.18L484.81 266.5L491.38 272.62C494.99 275.98 501.68 281.91 506.25 285.78L514.55 292.83L522.52 290.92C531.9 288.68 542.44 288.48 549.65 290.39C559.2 292.94 565.01 297.01 580.11 311.73C590.66 322 596.23 326.66 600.11 328.47C603.08 329.85 606.23 330.98 607.12 330.99C608.06 331 610.35 328.23 612.62 324.36C619.42 312.71 632.84 302.73 647.5 298.41C655.76 295.97 672.41 295.96 680.5 298.38C694.44 302.55 708.25 313.32 714.96 325.25C716.87 328.65 718.87 331 719.85 330.99C724.92 330.96 732.12 325.74 745.53 312.38C755.47 302.49 761.26 297.55 765.58 295.27C777.52 288.97 789.29 287.54 803.43 290.65L810.93 292.29L821.71 282.26C822.77 281.28 823.75 280.37 824.66 279.53C833.29 271.51 835.6 269.37 835.47 267.4C835.41 266.47 834.8 265.57 834.06 264.13C825.24 246.83 828.5 225.87 842.27 211.31C851.85 201.17 863.69 196.43 877.41 197.24C888.61 197.9 895.28 200.69 903.33 208.06C914.23 218.05 918.72 229.85 917.73 245.87C916.72 262.11 906.75 276.57 891.35 284.15C885.8 286.88 883.35 287.46 875.95 287.82C865.92 288.3 856.17 285.96 849.61 281.51L845.86 278.96L835.4 288.67C826.32 297.08 825.13 298.56 826.37 299.8C827.33 300.76 840.95 303.11 867.99 306.99C900.1 311.59 908.7 313.14 910.78 314.68C922.59 323.5 920.23 343.15 906.89 347.15C906.3 347.33 905.8 347.48 905.28 347.6C901.73 348.42 897.78 347.52 864.05 339.82L862.8 339.53L833.1 332.75L829.77 336.28C822.59 343.89 810.63 343.29 803.62 334.96C802.13 333.19 801 330.61 801 328.99C801 326.35 800.61 326.06 795.57 325.01C785.85 323 783.48 324.26 767.5 339.98C759.8 347.56 750.63 355.57 747.13 357.78L740.75 361.8L745.49 363.89C758.07 369.46 770 381.23 776.53 394.5C781.28 404.17 783.07 411.65 783.69 424.5C784.13 433.59 783.85 437.05 782.08 444.46C778.01 461.48 767.8 477.6 755.14 487C752.87 488.69 751.35 489.68 750.4 491.05C748.55 493.74 748.84 497.9 749.79 511.64C749.87 512.7 749.94 513.82 750.03 515C750.57 522.97 751.91 543.45 753.01 560.5C754.1 577.55 755.46 598.47 756.02 607L756.16 609.05C759.74 662.83 760.22 670.08 757.15 675.2C756.64 676.06 756.02 676.86 755.3 677.82C751.11 683.36 745.45 686.76 737.42 688.55L730 690.2V695.44C730 705.39 727.01 731.8 724.44 744.63C719.26 770.43 713.39 783.84 702.61 794.58C695 802.15 688.47 805.92 678.54 808.47ZM429.28 732C447.82 730.19 469.92 724.31 485.8 716.93C527.28 697.69 553.85 663.85 558.89 623.87L559.6 618.24L557.95 617.32C558.77 617.75 559.31 618 559.42 618C560.41 618 560.05 597.24 558.93 589.69C555.63 567.43 545.3 546.49 529.57 530.16C488.76 487.78 414.59 474.25 348.34 497.1C300.81 513.49 270.54 543.35 260.41 583.87C257.79 594.33 256.26 613.56 257.42 621.31C257.73 623.39 257.8 624.68 258.43 625.07C258.96 625.4 259.89 625.1 261.69 624.1C259.36 625.71 258 626.93 258 627.56C258 630.42 261.24 642.6 264.04 650.28C273.79 676.98 297.75 701.67 327.33 715.49C357.16 729.44 394.11 735.42 429.28 732ZM648.57 479.4C651.83 480.19 658.86 480.87 664.2 480.92C676.78 481.02 686.84 478 697.43 470.92C716.56 458.13 727.08 437.15 725.73 414.49C724.75 398.07 718.57 384.57 706.5 372.49C694.49 360.48 680.51 354.6 664 354.62C646.56 354.65 632.32 360.63 619.83 373.17C607.38 385.68 601 400.91 601 418.16C601 429.7 602.35 435.77 607.19 445.89C614.92 462.09 631.07 475.17 648.57 479.4ZM609.13 624.65C625.25 617.33 638.68 614.12 656.57 613.3C678.34 612.31 698.64 615.98 715.78 624.02C720.45 626.21 724.5 628 724.78 628C725.57 628 724 600.73 722.41 587C721.12 575.85 717.18 556.48 716.37 557.3C716.2 557.47 712.33 553.95 707.78 549.47C712.33 553.95 715.72 556.64 715.38 555.52C712.24 545.08 700.1 530.94 689.4 525.28C672.07 516.09 650.04 517.27 633.4 528.27C618.66 538.01 605.82 559.16 608.4 569.45C608.81 571.07 609.35 571.89 610.14 571.8C608.77 572.24 608.07 570.51 607.91 566.67C607.74 562.52 605.07 574.58 603.52 586.47C601.9 598.92 600.29 628 601.22 628C601.51 628 605.07 626.49 609.13 624.65ZM162 625.18C166.12 623.52 172.97 621.45 177.21 620.58C186.19 618.74 207.31 618.47 215.2 620.09C221.13 621.31 232.52 625.18 236.98 627.49C238.59 628.32 240.22 629 240.61 629C241.58 629 240.2 585.18 238.96 576.5C237.21 564.3 232.31 548 230.39 548C230.21 548 230.16 548.18 230.23 548.44L229.56 547.17C227.33 542.91 219.89 536.26 215 534.15C201.07 528.11 184.05 531.82 173.41 543.2C168.95 547.96 165.32 555.13 163.76 561.07C164 559.5 164.27 558.15 164.48 557.5C165.9 553.1 161.68 561.61 159.96 566.63C155 581.03 149.69 630.15 153.25 628.71C153.94 628.43 157.88 626.84 162 625.18ZM583.33 674.06C590.03 677.11 591 676.76 591 671.3C591 668.72 591.5 661.48 592.11 655.22L593.22 643.84L590.57 641.08C586.94 637.28 586.61 633.9 587.92 613.88C590.24 578.53 593.04 562.58 599.47 548.13C602.83 540.56 602.87 540.26 604.96 511.5C606.11 495.55 607.26 481.57 607.51 480.42C607.81 478.99 606.85 477.28 604.4 474.92C602.44 473.04 599.21 468.86 597.2 465.63C593.58 459.77 593.56 459.76 592.88 462.63C592.5 464.21 591.45 474.95 590.54 486.5C589.63 498.05 587.58 522.12 585.97 540C581.71 587.56 578.24 629.08 576.84 649.13C575.43 669.41 575.75 670.62 583.33 674.06ZM729.79 643.42L730.5 675.99L733.29 676C737.38 676 743.74 672.41 745.43 669.14C746.72 666.64 746.73 663.75 745.46 645.4C744.67 633.9 743.57 617.3 743.02 608.5C742.47 599.7 741.8 589.35 741.52 585.5C740.86 576.37 739.23 551.06 738.53 539C737.51 521.53 734.01 471.57 733.4 465.72L732.8 459.93L729.8 464.72C728.16 467.35 724.88 471.52 722.51 474L718.21 478.5L720.15 508L722.09 537.5L725.51 545C732.82 561.01 736.54 583.02 737.68 616.9C738.37 637.72 737.96 639.69 732.34 642.25L729.79 643.42ZM303 500.99C303 503.17 303.04 503.17 308.03 500.35C312.84 497.63 313.19 497.13 315.95 489.16C323.39 467.64 341.24 447.43 362 437C378.44 428.75 394.96 425.37 414.41 426.3C428.78 426.98 437.77 429.28 450.5 435.5C468.67 444.39 483.16 458.87 492.17 477.17C494.7 482.3 497.04 487.4 497.38 488.5C497.87 490.13 506.43 496 508.31 496C508.59 496 508.24 493.86 507.54 491.25C499.91 463.01 481.23 440.54 454.5 427.47C439.93 420.35 429.93 417.86 413.5 417.26C369.87 415.66 330.71 437.88 312.11 474.78C308.48 481.98 303 497.74 303 500.99ZM579.56 457.89C580.39 447.78 581.49 431.61 582.01 421.97C583.02 402.89 585.23 392.66 591.05 380.12L594.01 373.75L590.76 374.39C585.33 375.46 577.41 379.82 571.88 384.8C550.49 404 547.36 437.21 564.5 462.99C568.74 469.38 576.66 477.67 577.61 476.72C577.85 476.48 578.73 468.01 579.56 457.89ZM753.64 470.75C764.23 459.79 769.96 446.44 770.76 430.87C771.87 409.32 763.5 390.73 748.12 380.63C742.67 377.05 732 372.28 732 373.42C732 373.59 733.79 377.55 735.98 382.22C741.61 394.23 742.93 401.21 744.03 424.79C744.57 436.18 745.44 451.35 745.97 458.5C746.51 465.65 746.95 472.51 746.97 473.75C746.99 474.99 747.35 476 747.78 476C748.22 476 750.85 473.64 753.64 470.75ZM707.68 344.92C706.37 333.92 696.81 320.48 686.16 314.68C680.36 311.53 670.38 309.04 663.46 309.01C642.63 308.95 622.09 324.86 619.2 343.29C618.71 346.43 618.47 349 618.67 349C618.87 349 621.39 347.68 624.27 346.06C639.27 337.62 658.43 334.19 674.57 337.05C683.34 338.6 694.7 342.57 701.5 346.45C704.8 348.33 707.68 349.9 707.89 349.93C708.1 349.97 708.01 347.72 707.68 344.92ZM598 352.12C601.03 353.09 603.84 353.92 604.25 353.95C604.66 353.98 605 351.56 605 348.58C605 343.27 604.93 343.14 601.75 342.46C593.61 340.69 586.72 335.84 572.01 321.51C563.94 313.65 555.44 306.24 553.12 305.06C546.41 301.64 538.78 300.63 529.94 302.01C519.63 303.61 519.52 303.71 521.9 309.27L523.87 313.87L527.69 312.82C532.94 311.37 544.75 312.29 549 314.48C550.92 315.47 558.12 321.75 565 328.43C582.61 345.55 586.66 348.46 598 352.12ZM722 351.64C722 353.75 722.33 353.96 724.75 353.38C730.47 352.03 739.26 347.98 743.8 344.61C746.38 342.7 753.67 335.87 760 329.46C773.65 315.6 779.74 312 789.51 312C792.81 312 797 312.43 798.81 312.95C801.56 313.73 802.19 313.61 802.6 312.2C802.88 311.26 803.78 309.19 804.6 307.59C806.48 303.93 805.97 303.59 796.39 302.05C787.55 300.62 780.16 301.79 772.5 305.84C769.63 307.36 761.54 314.27 753.5 322.08C738.84 336.31 733.67 340.04 725.67 342.17C721.07 343.4 720.87 343.6 721.42 346.35C721.74 347.95 722 350.33 722 351.64ZM629.77 750.78C630.7 751.48 632.15 751.92 632.98 751.76C634.21 751.52 634.45 749.96 634.25 743.48C634.12 739.09 633.85 713.92 633.66 687.55C633.35 644.19 633.16 639.5 631.66 638.56C629.46 637.17 626.82 638.84 625.93 642.17C624.49 647.55 623.91 686.51 624.93 709C626.26 738.36 627.5 749.06 629.77 750.78ZM690.15 750.68C691.53 752.35 694.44 752.39 695.77 750.75C698.15 747.82 699.5 723.04 699.5 682.17C699.5 642.44 699.43 640.78 697.56 639.42C695.99 638.27 695.27 638.24 693.74 639.26C691.94 640.45 691.83 642.67 691.54 684.01C691.37 707.93 690.74 732.42 690.14 738.43C689.35 746.36 689.35 749.71 690.15 750.68ZM187.67 744.53C189.47 746.33 191.44 746.42 192.71 744.75C193.31 743.97 193.45 724.27 193.09 692L192.5 640.5L189.82 640.19C184.66 639.59 184.5 640.89 184.54 683C184.59 726.18 185.41 742.27 187.67 744.53ZM535.43 700L528.21 707H589V693H542.65L535.43 700ZM632.17 420.35C629.71 422.57 627.43 422.43 624.88 419.88C623.08 418.08 622.84 416.98 623.34 412.8C624.61 402.09 633.69 389.21 643.88 383.66C648.45 381.18 659.71 378.06 664.3 378.02C666.25 378 671 382.24 671 384C671 384.6 669.9 386.2 668.55 387.55C666.7 389.39 665.02 390 661.8 390C655.45 390 646.16 394.75 641.59 400.32C637.89 404.84 634 413.31 634 416.86C634 417.86 633.18 419.43 632.17 420.35ZM244 693V707H287.45L273.55 693H244ZM468.2 235.81C470.24 239.62 473.65 240.11 474.89 236.76C477.36 230.08 468.01 217.62 456.63 212.43C451.61 210.13 449.82 209.82 444.13 210.22C433.74 210.97 426.83 215.68 430.6 219.46C431.82 220.67 433.07 220.87 435.85 220.28C441.48 219.08 448.47 219.53 453.37 221.4C458.02 223.17 465.16 230.11 468.2 235.81ZM845.01 234.51C846.61 236.44 848.6 236.4 850.21 234.4C856.1 227.11 860.75 222.88 864.39 221.49C869.29 219.62 876.55 219.19 883.24 220.38C887.3 221.1 888.07 220.97 888.65 219.48C890.31 215.14 882.35 210.04 873.88 210.02C863.61 209.99 853.66 215.26 848.08 223.7C844.25 229.48 843.38 232.54 845.01 234.51ZM244 662V680H264.14L262.01 677.02C259.03 672.82 251.53 656.6 249.41 649.75C248.1 645.51 247.16 644 245.82 644C244.13 644 244 645.27 244 662ZM553 679.63C553 679.83 556.67 680 561.15 680C568.92 680 569.23 679.91 567.69 678.21C565.09 675.33 563 669.39 562.98 664.78L562.96 660.5L557.98 669.88C555.24 675.04 553 679.43 553 679.63ZM609.04 366.92C608.18 368.53 609.8 367.53 613.89 363.92C624.37 354.66 634.99 349.06 648.95 345.43C651.96 344.64 655.87 344 657.65 344C659.43 344 661.18 343.52 661.54 342.94C662.47 341.43 651.32 342.69 642.05 345.14C628.54 348.7 613.46 358.65 609.04 366.92ZM438.21 582.07C403.95 580.06 368.57 583.56 335.62 592.33C340.74 590.95 345.88 589.69 351 588.6C379.79 582.42 409.52 580.33 438.21 582.07ZM299.37 604.61C290.14 608.52 279.9 613.55 271.92 617.96C280.04 613.24 289.36 608.73 299.37 604.61ZM185.23 548.72C187.76 546.62 190.36 544.9 192.71 543.88C195.78 542.54 199.04 541.69 202.38 541.33C196.27 542.13 190.42 544.64 185.23 548.72ZM552.86 614.5L549.55 612.66C544.72 609.98 540.16 607.61 535.69 605.46C541.24 608.04 546.58 610.83 551.7 613.82C552.09 614.05 552.48 614.28 552.86 614.5ZM163.99 570.48C164.06 570.58 164.14 570.66 164.22 570.75C163.8 570.35 163.51 569.89 163.33 569.29C163.5 569.75 163.71 570.15 163.99 570.48Z" fill="#2C3C4B"/>
<path d="M0 512V0H512H1024V512V1024H512H0V512ZM678.54 808.47C688.47 805.92 695 802.15 702.61 794.58C713.39 783.84 719.26 770.43 724.44 744.63C727.01 731.8 730 705.39 730 695.44V690.2L737.42 688.55C745.45 686.76 751.11 683.36 755.3 677.82C760.35 671.13 760.34 671.9 756.02 607C755.46 598.47 754.1 577.55 753.01 560.5C751.91 543.45 750.57 522.97 750.03 515C748.36 490.73 748.08 492.24 755.14 487C767.8 477.6 778.01 461.48 782.08 444.46C783.85 437.05 784.13 433.59 783.69 424.5C783.07 411.65 781.28 404.17 776.53 394.5C770 381.23 758.07 369.46 745.49 363.89L740.75 361.8L747.13 357.78C750.63 355.57 759.8 347.56 767.5 339.98C783.48 324.26 785.85 323 795.57 325.01C800.61 326.06 801 326.35 801 328.99C801 330.61 802.13 333.19 803.62 334.96C810.63 343.29 822.59 343.89 829.77 336.28L833.1 332.75L862.8 339.53C902.68 348.64 902.2 348.56 906.89 347.15C920.23 343.15 922.59 323.5 910.78 314.68C908.7 313.14 900.1 311.59 867.99 306.99C840.95 303.11 827.33 300.76 826.37 299.8C825.13 298.56 826.32 297.08 835.4 288.67L845.86 278.96L849.61 281.51C856.17 285.96 865.92 288.3 875.95 287.82C883.35 287.46 885.8 286.88 891.35 284.15C906.75 276.57 916.72 262.11 917.73 245.87C918.72 229.85 914.23 218.05 903.33 208.06C895.28 200.69 888.61 197.9 877.41 197.24C863.69 196.43 851.85 201.17 842.27 211.31C828.5 225.87 825.24 246.83 834.06 264.13C836.54 268.98 837.49 267.59 821.71 282.26L810.93 292.29L803.43 290.65C789.29 287.54 777.52 288.97 765.58 295.27C761.26 297.55 755.47 302.49 745.53 312.38C732.12 325.74 724.92 330.96 719.85 330.99C718.87 331 716.87 328.65 714.96 325.25C708.25 313.32 694.44 302.55 680.5 298.38C672.41 295.96 655.76 295.97 647.5 298.41C632.84 302.73 619.42 312.71 612.62 324.36C610.35 328.23 608.06 331 607.12 330.99C606.23 330.98 603.08 329.85 600.11 328.47C596.23 326.66 590.66 322 580.11 311.73C565.01 297.01 559.2 292.94 549.65 290.39C542.44 288.48 531.9 288.68 522.52 290.92L514.55 292.83L506.25 285.78C501.68 281.91 494.99 275.98 491.38 272.62L484.81 266.5L486.92 261.18C496.08 238.04 486.38 212.22 464.45 201.38C451.69 195.07 437.65 195.54 423.81 202.72C406.84 211.52 396.53 231.96 399.71 250.52C403.36 271.8 418.64 285.86 441 288.5C450.64 289.64 462.41 286.22 473.66 279.02C475.68 277.72 476.49 278.21 486.16 286.48C501 299.17 499.76 297.71 497.47 299.85C495.96 301.26 491.53 302.19 478.5 303.84C436.02 309.24 410.92 312.99 408.32 314.34C402.74 317.22 399 323.61 399 330.24C399 335.41 402.4 342.58 406.14 345.3C411.78 349.41 415.2 349 466.5 338.01C471.45 336.95 479.2 335.31 483.73 334.37L491.95 332.67L494.06 335.35C497.25 339.4 501.78 341.32 508.19 341.33C516.46 341.34 521.53 337.1 524.36 327.83C524.69 326.75 526.81 325.77 530.37 325.03C539.92 323.04 542.43 324.33 557.42 338.84C571.83 352.81 575.14 355.53 582.42 359.35C586.46 361.46 587 362.04 585.42 362.56C578.42 364.84 568.5 370.72 562.72 376.02C530.25 405.77 534.24 461.66 570.69 487.67C576.38 491.73 577.12 492.63 576.67 494.9C576.39 496.33 574.69 514.02 572.88 534.22C571.08 554.42 569.39 570.73 569.14 570.47C568.88 570.21 567.62 567.02 566.35 563.38C559.9 544.94 544.74 523.49 529.25 510.89C524.29 506.85 523 505.23 523 503.01C523 497.93 517.29 477.5 513.7 469.73C505.71 452.43 490.06 434.14 474.31 423.7C438.82 400.16 394.29 397.62 354.5 416.87C318.1 434.48 295.18 465.56 288.51 506.34L287.07 515.18L278.28 524.38C268.35 534.8 261.43 544.61 255.31 556.97C252.88 561.87 250.9 564.83 250.62 563.97C250.36 563.16 249.39 559.82 248.48 556.55C238.98 522.39 203.55 508.01 173.43 526.1C161.55 533.23 150.97 549.02 146.04 567C141.38 583.98 136.77 631.16 139.11 637.89C140.29 641.26 144.37 644 148.2 644H150.5L150.14 667.12C149.38 715.96 153.7 754.24 162.05 772.74C165.19 779.71 173.59 789.25 178.99 791.99C188.66 796.88 205.36 797.28 215.02 792.84C222.32 789.48 226.56 785.74 231.19 778.59C237.2 769.29 240.32 756.99 243.09 731.75L244.27 721H275.66H307.04L315.77 725.36C334.2 734.58 352.72 740.45 376.5 744.61C390.61 747.09 426.5 747.12 440.46 744.68C463.15 740.7 482.39 734.52 498.89 725.9L508.29 721H548.54H588.8L589.96 725.83C591.5 732.27 594.29 736.65 598.38 739.06C601.33 740.8 601.89 741.82 602.93 747.27C604.88 757.59 609.96 773.07 613.83 780.47C621.14 794.43 634.2 804.92 648.64 808.42C656.55 810.33 671.19 810.36 678.54 808.47ZM629.77 750.78C627.5 749.06 626.26 738.36 624.93 709C623.91 686.51 624.49 647.55 625.93 642.17C626.82 638.84 629.46 637.17 631.66 638.56C633.16 639.5 633.35 644.19 633.66 687.55C633.85 713.92 634.12 739.09 634.25 743.48C634.45 749.96 634.21 751.52 632.98 751.76C632.15 751.92 630.7 751.48 629.77 750.78ZM690.15 750.68C689.35 749.71 689.35 746.36 690.14 738.43C690.74 732.42 691.37 707.93 691.54 684.01C691.83 642.67 691.94 640.45 693.74 639.26C695.27 638.24 695.99 638.27 697.56 639.42C699.43 640.78 699.5 642.44 699.5 682.17C699.5 723.04 698.15 747.82 695.77 750.75C694.44 752.39 691.53 752.35 690.15 750.68ZM187.67 744.53C185.41 742.27 184.59 726.18 184.54 683C184.5 640.89 184.66 639.59 189.82 640.19L192.5 640.5L193.09 692C193.45 724.27 193.31 743.97 192.71 744.75C191.44 746.42 189.47 746.33 187.67 744.53ZM244 700V693H258.78H273.55L280.5 700L287.45 707H265.72H244V700ZM535.43 700L542.65 693H565.83H589V700V707H558.61H528.21L535.43 700ZM244 662C244 645.27 244.13 644 245.82 644C247.16 644 248.1 645.51 249.41 649.75C251.53 656.6 259.03 672.82 262.01 677.02L264.14 680H254.07H244V662ZM553 679.63C553 679.43 555.24 675.04 557.98 669.88L562.96 660.5L562.98 664.78C563 669.39 565.09 675.33 567.69 678.21C569.23 679.91 568.92 680 561.15 680C556.67 680 553 679.83 553 679.63ZM583.33 674.06C575.75 670.62 575.43 669.41 576.84 649.13C578.24 629.08 581.71 587.56 585.97 540C587.58 522.12 589.63 498.05 590.54 486.5C591.45 474.95 592.5 464.21 592.88 462.63C593.56 459.76 593.58 459.77 597.2 465.63C599.21 468.86 602.44 473.04 604.4 474.92C606.85 477.28 607.81 478.99 607.51 480.42C607.26 481.57 606.11 495.55 604.96 511.5C602.87 540.26 602.83 540.56 599.47 548.13C593.04 562.58 590.24 578.53 587.92 613.88C586.61 633.9 586.94 637.28 590.57 641.08L593.22 643.84L592.11 655.22C591.5 661.48 591 668.72 591 671.3C591 676.76 590.03 677.11 583.33 674.06ZM730.15 659.7L729.79 643.42L732.34 642.25C737.96 639.69 738.37 637.72 737.68 616.9C736.54 583.02 732.82 561.01 725.51 545L722.09 537.5L720.15 508L718.21 478.5L722.51 474C724.88 471.52 728.16 467.35 729.8 464.72L732.8 459.93L733.4 465.72C734.01 471.57 737.51 521.53 738.53 539C739.23 551.06 740.86 576.37 741.52 585.5C741.8 589.35 742.47 599.7 743.02 608.5C743.57 617.3 744.67 633.9 745.46 645.4C746.73 663.75 746.72 666.64 745.43 669.14C743.74 672.41 737.38 676 733.29 676L730.5 675.99L730.15 659.7ZM292.07 637.37C290.93 635.92 290 634.18 290 633.5C290 626.88 320.84 612.93 349.59 606.55C364.38 603.26 368.83 603.41 370.97 607.25C372.33 609.7 372.34 610.29 371 612.68C369.67 615.05 368.24 615.62 358.5 617.65C341.96 621.11 323.85 627.22 310.16 633.96C303.41 637.28 297.05 640 296.02 640C294.99 640 293.21 638.81 292.07 637.37ZM257.42 621.31C256.26 613.56 257.79 594.33 260.41 583.87C270.54 543.35 300.81 513.49 348.34 497.1C414.59 474.25 488.76 487.78 529.57 530.16C545.3 546.49 555.63 567.43 558.93 589.69C560.05 597.24 560.41 618 559.42 618C559.11 618 555.63 616.12 551.7 613.82C498.91 582.99 422.11 573.34 351 588.6C321.04 595.03 290.13 606.76 268.76 619.84C257.41 626.78 258.22 626.67 257.42 621.31ZM163.99 570.48C160.61 566.41 165.82 551.31 173.41 543.2C184.05 531.82 201.07 528.11 215 534.15C219.89 536.26 227.33 542.91 229.56 547.17L230.97 549.83L225.44 546.51C215.32 540.41 202.93 539.42 192.71 543.88C186.02 546.79 177.39 555.28 173.78 562.5C169.1 571.84 166.72 573.78 163.99 570.48ZM608.4 569.45C605.82 559.16 618.66 538.01 633.4 528.27C650.04 517.27 672.07 516.09 689.4 525.28C700.1 530.94 712.24 545.08 715.38 555.52C715.72 556.65 712.32 553.94 707.75 549.44C691.79 533.76 673.42 527.98 654.02 532.56C639.44 535.99 626.34 546.72 617.03 562.85C611.59 572.28 609.51 573.87 608.4 569.45ZM303 500.99C303 497.74 308.48 481.98 312.11 474.78C330.71 437.88 369.87 415.66 413.5 417.26C429.93 417.86 439.93 420.35 454.5 427.47C481.23 440.54 499.91 463.01 507.54 491.25C508.24 493.86 508.59 496 508.31 496C506.43 496 497.87 490.13 497.38 488.5C497.04 487.4 494.7 482.3 492.17 477.17C483.16 458.87 468.67 444.39 450.5 435.5C437.77 429.28 428.78 426.98 414.41 426.3C394.96 425.37 378.44 428.75 362 437C341.24 447.43 323.39 467.64 315.95 489.16C313.19 497.13 312.84 497.63 308.03 500.35C303.04 503.17 303 503.17 303 500.99ZM648.57 479.4C631.07 475.17 614.92 462.09 607.19 445.89C602.35 435.77 601 429.7 601 418.16C601 400.91 607.38 385.68 619.83 373.17C632.32 360.63 646.56 354.65 664 354.62C680.51 354.6 694.49 360.48 706.5 372.49C718.57 384.57 724.75 398.07 725.73 414.49C727.08 437.15 716.56 458.13 697.43 470.92C686.84 478 676.78 481.02 664.2 480.92C658.86 480.87 651.83 480.19 648.57 479.4ZM632.17 420.35C633.18 419.43 634 417.86 634 416.86C634 413.31 637.89 404.84 641.59 400.32C646.16 394.75 655.45 390 661.8 390C665.02 390 666.7 389.39 668.55 387.55C669.9 386.2 671 384.6 671 384C671 382.24 666.25 378 664.3 378.02C659.71 378.06 648.45 381.18 643.88 383.66C633.69 389.21 624.61 402.09 623.34 412.8C622.84 416.98 623.08 418.08 624.88 419.88C627.43 422.43 629.71 422.57 632.17 420.35ZM609.04 366.92C613.46 358.65 628.54 348.7 642.05 345.14C651.32 342.69 662.47 341.43 661.54 342.94C661.18 343.52 659.43 344 657.65 344C655.87 344 651.96 344.64 648.95 345.43C634.99 349.06 624.37 354.66 613.89 363.92C609.8 367.53 608.18 368.53 609.04 366.92ZM598 352.12C586.66 348.46 582.61 345.55 565 328.43C558.12 321.75 550.92 315.47 549 314.48C544.75 312.29 532.94 311.37 527.69 312.82L523.87 313.87L521.9 309.27C519.52 303.71 519.63 303.61 529.94 302.01C538.78 300.63 546.41 301.64 553.12 305.06C555.44 306.24 563.94 313.65 572.01 321.51C586.72 335.84 593.61 340.69 601.75 342.46C604.93 343.14 605 343.27 605 348.58C605 351.56 604.66 353.98 604.25 353.95C603.84 353.92 601.03 353.09 598 352.12ZM722 351.64C722 350.33 721.74 347.95 721.42 346.35C720.87 343.6 721.07 343.4 725.67 342.17C733.67 340.04 738.84 336.31 753.5 322.08C761.54 314.27 769.63 307.36 772.5 305.84C780.16 301.79 787.55 300.62 796.39 302.05C805.97 303.59 806.48 303.93 804.6 307.59C803.78 309.19 802.88 311.26 802.6 312.2C802.19 313.61 801.56 313.73 798.81 312.95C797 312.43 792.81 312 789.51 312C779.74 312 773.65 315.6 760 329.46C753.67 335.87 746.38 342.7 743.8 344.61C739.26 347.98 730.47 352.03 724.75 353.38C722.33 353.96 722 353.75 722 351.64ZM468.2 235.81C465.16 230.11 458.02 223.17 453.37 221.4C448.47 219.53 441.48 219.08 435.85 220.28C433.07 220.87 431.82 220.67 430.6 219.46C426.83 215.68 433.74 210.97 444.13 210.22C449.82 209.82 451.61 210.13 456.63 212.43C468.01 217.62 477.36 230.08 474.89 236.76C473.65 240.11 470.24 239.62 468.2 235.81ZM845.01 234.51C843.38 232.54 844.25 229.48 848.08 223.7C853.66 215.26 863.61 209.99 873.88 210.02C882.35 210.04 890.31 215.14 888.65 219.48C888.07 220.97 887.3 221.1 883.24 220.38C876.55 219.19 869.29 219.62 864.39 221.49C860.75 222.88 856.1 227.11 850.21 234.4C848.6 236.4 846.61 236.44 845.01 234.51Z" fill="white"/>
</g>
<defs>
<clipPath id="clip0_22_6">
<rect width="1024" height="1024" rx="195" fill="white"/>
</clipPath>
</defs>
</svg>
