<svg xmlns="http://www.w3.org/2000/svg" width="1024" height="1024" viewBox="0 0 1024 1024">
<g>
<path d="M 429.28 732.00 C394.11,735.42 357.16,729.44 327.33,715.49 C297.75,701.67 273.79,676.98 264.04,650.28 C261.24,642.60 258.00,630.42 258.00,627.56 C258.00,624.76 284.80,610.29 304.04,602.69 C362.34,579.68 433.40,575.11 493.50,590.51 C515.51,596.16 530.41,602.04 549.55,612.66 L 559.60 618.24 L 558.89 623.87 C553.85,663.85 527.28,697.69 485.80,716.93 C469.92,724.31 447.82,730.19 429.28,732.00 ZM 609.13 624.65 C605.07,626.49 601.51,628.00 601.22,628.00 C600.29,628.00 601.90,598.92 603.52,586.47 C605.07,574.58 607.74,562.52 607.91,566.67 C608.24,574.62 610.88,573.52 617.03,562.85 C626.34,546.72 639.44,535.99 654.02,532.56 C673.44,527.98 691.79,533.75 707.78,549.47 C712.33,553.95 716.20,557.47 716.37,557.30 C717.18,556.48 721.12,575.85 722.41,587.00 C724.00,600.73 725.57,628.00 724.78,628.00 C724.50,628.00 720.45,626.21 715.78,624.02 C698.64,615.98 678.34,612.31 656.57,613.30 C638.68,614.12 625.25,617.33 609.13,624.65 ZM 162.00 625.18 C157.88,626.84 153.94,628.43 153.25,628.71 C149.69,630.15 155.00,581.03 159.96,566.63 C161.68,561.61 165.90,553.10 164.48,557.50 C164.13,558.60 163.59,561.76 163.30,564.53 C162.88,568.50 163.13,569.86 164.47,570.97 C166.98,573.06 168.95,571.38 173.06,563.66 C184.50,542.12 206.32,534.99 225.48,546.53 C228.54,548.37 230.78,549.46 230.46,548.94 C230.14,548.42 230.11,548.00 230.39,548.00 C232.31,548.00 237.21,564.30 238.96,576.50 C240.20,585.18 241.58,629.00 240.61,629.00 C240.22,629.00 238.59,628.32 236.98,627.49 C232.52,625.18 221.13,621.31 215.20,620.09 C207.31,618.47 186.19,618.74 177.21,620.58 C172.97,621.45 166.12,623.52 162.00,625.18 ZM 579.56 457.89 C578.73,468.01 577.85,476.48 577.61,476.72 C576.66,477.67 568.74,469.38 564.50,462.99 C547.36,437.21 550.49,404.00 571.88,384.80 C577.41,379.82 585.33,375.46 590.76,374.39 L 594.01 373.75 L 591.05 380.12 C585.23,392.66 583.02,402.89 582.01,421.97 C581.49,431.61 580.39,447.78 579.56,457.89 ZM 753.64 470.75 C750.85,473.64 748.22,476.00 747.78,476.00 C747.35,476.00 746.99,474.99 746.97,473.75 C746.95,472.51 746.51,465.65 745.97,458.50 C745.44,451.35 744.57,436.18 744.03,424.79 C742.93,401.21 741.61,394.23 735.98,382.22 C733.79,377.55 732.00,373.59 732.00,373.42 C732.00,372.28 742.67,377.05 748.12,380.63 C763.50,390.73 771.87,409.32 770.76,430.87 C769.96,446.44 764.23,459.79 753.64,470.75 ZM 707.68 344.92 C708.01,347.72 708.10,349.97 707.89,349.93 C707.68,349.90 704.80,348.33 701.50,346.45 C694.70,342.57 683.34,338.60 674.57,337.05 C658.43,334.19 639.27,337.62 624.27,346.06 C621.39,347.68 618.87,349.00 618.67,349.00 C618.47,349.00 618.71,346.43 619.20,343.29 C622.09,324.86 642.63,308.95 663.46,309.01 C670.38,309.04 680.36,311.53 686.16,314.68 C696.81,320.48 706.37,333.92 707.68,344.92 ZM 292.07 637.37 C293.21,638.81 294.99,640.00 296.02,640.00 C297.05,640.00 303.41,637.28 310.16,633.96 C323.85,627.22 341.96,621.11 358.50,617.65 C368.24,615.62 369.67,615.05 371.00,612.68 C372.34,610.29 372.33,609.70 370.97,607.25 C368.83,603.41 364.38,603.26 349.59,606.55 C320.84,612.93 290.00,626.88 290.00,633.50 C290.00,634.18 290.93,635.92 292.07,637.37 Z" fill="rgb(12,184,187)"/>
<path d="M 678.54 808.47 C671.19,810.36 656.55,810.33 648.64,808.42 C634.20,804.92 621.14,794.43 613.83,780.47 C609.96,773.07 604.88,757.59 602.93,747.27 C601.89,741.82 601.33,740.80 598.38,739.06 C594.29,736.65 591.50,732.27 589.96,725.83 L 588.80 721.00 L 508.29 721.00 L 498.89 725.90 C482.39,734.52 463.15,740.70 440.46,744.68 C426.50,747.12 390.61,747.09 376.50,744.61 C352.72,740.45 334.20,734.58 315.77,725.36 L 307.04 721.00 L 244.27 721.00 L 243.09 731.75 C240.32,756.99 237.20,769.29 231.19,778.59 C226.56,785.74 222.32,789.48 215.02,792.84 C205.36,797.28 188.66,796.88 178.99,791.99 C173.59,789.25 165.19,779.71 162.05,772.74 C153.70,754.24 149.38,715.96 150.14,667.12 L 150.50 644.00 L 148.20 644.00 C144.37,644.00 140.29,641.26 139.11,637.89 C136.77,631.16 141.38,583.98 146.04,567.00 C150.97,549.02 161.55,533.23 173.43,526.10 C203.55,508.01 238.98,522.39 248.48,556.55 C249.39,559.82 250.36,563.16 250.62,563.97 C250.90,564.83 252.88,561.87 255.31,556.97 C261.43,544.61 268.35,534.80 278.28,524.38 L 287.07 515.18 L 288.51 506.34 C295.18,465.56 318.10,434.48 354.50,416.87 C394.29,397.62 438.82,400.16 474.31,423.70 C490.06,434.14 505.71,452.43 513.70,469.73 C517.29,477.50 523.00,497.93 523.00,503.01 C523.00,505.23 524.29,506.85 529.25,510.89 C544.74,523.49 559.90,544.94 566.35,563.38 C567.62,567.02 568.88,570.21 569.14,570.47 C569.39,570.73 571.08,554.42 572.88,534.22 C574.69,514.02 576.39,496.33 576.67,494.90 C577.12,492.63 576.38,491.73 570.69,487.67 C534.24,461.66 530.25,405.77 562.72,376.02 C568.50,370.72 578.42,364.84 585.42,362.56 C587.00,362.04 586.46,361.46 582.42,359.35 C575.14,355.53 571.83,352.81 557.42,338.84 C542.43,324.33 539.92,323.04 530.37,325.03 C526.81,325.77 524.69,326.75 524.36,327.83 C521.53,337.10 516.46,341.34 508.19,341.33 C501.78,341.32 497.25,339.40 494.06,335.35 L 491.95 332.67 L 483.73 334.37 C479.20,335.31 471.45,336.95 466.50,338.01 C415.20,349.00 411.78,349.41 406.14,345.30 C402.40,342.58 399.00,335.41 399.00,330.24 C399.00,323.61 402.74,317.22 408.32,314.34 C410.92,312.99 436.02,309.24 478.50,303.84 C491.53,302.19 495.96,301.26 497.47,299.85 C498.13,299.23 498.70,298.91 498.83,298.47 C499.10,297.51 497.29,295.97 489.81,289.59 C488.71,288.66 487.50,287.63 486.16,286.48 C476.49,278.21 475.68,277.72 473.66,279.02 C462.41,286.22 450.64,289.64 441.00,288.50 C418.64,285.86 403.36,271.80 399.71,250.52 C396.53,231.96 406.84,211.52 423.81,202.72 C437.65,195.54 451.69,195.07 464.45,201.38 C486.38,212.22 496.08,238.04 486.92,261.18 L 484.81 266.50 L 491.38 272.62 C494.99,275.98 501.68,281.91 506.25,285.78 L 514.55 292.83 L 522.52 290.92 C531.90,288.68 542.44,288.48 549.65,290.39 C559.20,292.94 565.01,297.01 580.11,311.73 C590.66,322.00 596.23,326.66 600.11,328.47 C603.08,329.85 606.23,330.98 607.12,330.99 C608.06,331.00 610.35,328.23 612.62,324.36 C619.42,312.71 632.84,302.73 647.50,298.41 C655.76,295.97 672.41,295.96 680.50,298.38 C694.44,302.55 708.25,313.32 714.96,325.25 C716.87,328.65 718.87,331.00 719.85,330.99 C724.92,330.96 732.12,325.74 745.53,312.38 C755.47,302.49 761.26,297.55 765.58,295.27 C777.52,288.97 789.29,287.54 803.43,290.65 L 810.93 292.29 L 821.71 282.26 C822.77,281.28 823.75,280.37 824.66,279.53 C833.29,271.51 835.60,269.37 835.47,267.40 C835.41,266.47 834.80,265.57 834.06,264.13 C825.24,246.83 828.50,225.87 842.27,211.31 C851.85,201.17 863.69,196.43 877.41,197.24 C888.61,197.90 895.28,200.69 903.33,208.06 C914.23,218.05 918.72,229.85 917.73,245.87 C916.72,262.11 906.75,276.57 891.35,284.15 C885.80,286.88 883.35,287.46 875.95,287.82 C865.92,288.30 856.17,285.96 849.61,281.51 L 845.86 278.96 L 835.40 288.67 C826.32,297.08 825.13,298.56 826.37,299.80 C827.33,300.76 840.95,303.11 867.99,306.99 C900.10,311.59 908.70,313.14 910.78,314.68 C922.59,323.50 920.23,343.15 906.89,347.15 C906.30,347.33 905.80,347.48 905.28,347.60 C901.73,348.42 897.78,347.52 864.05,339.82 L 862.80 339.53 L 833.10 332.75 L 829.77 336.28 C822.59,343.89 810.63,343.29 803.62,334.96 C802.13,333.19 801.00,330.61 801.00,328.99 C801.00,326.35 800.61,326.06 795.57,325.01 C785.85,323.00 783.48,324.26 767.50,339.98 C759.80,347.56 750.63,355.57 747.13,357.78 L 740.75 361.80 L 745.49 363.89 C758.07,369.46 770.00,381.23 776.53,394.50 C781.28,404.17 783.07,411.65 783.69,424.50 C784.13,433.59 783.85,437.05 782.08,444.46 C778.01,461.48 767.80,477.60 755.14,487.00 C752.87,488.69 751.35,489.68 750.40,491.05 C748.55,493.74 748.84,497.90 749.79,511.64 C749.87,512.70 749.94,513.82 750.03,515.00 C750.57,522.97 751.91,543.45 753.01,560.50 C754.10,577.55 755.46,598.47 756.02,607.00 L 756.16 609.05 C759.74,662.83 760.22,670.08 757.15,675.20 C756.64,676.06 756.02,676.86 755.30,677.82 C751.11,683.36 745.45,686.76 737.42,688.55 L 730.00 690.20 L 730.00 695.44 C730.00,705.39 727.01,731.80 724.44,744.63 C719.26,770.43 713.39,783.84 702.61,794.58 C695.00,802.15 688.47,805.92 678.54,808.47 ZM 429.28 732.00 C447.82,730.19 469.92,724.31 485.80,716.93 C527.28,697.69 553.85,663.85 558.89,623.87 L 559.60 618.24 L 557.95 617.32 C558.77,617.75 559.31,618.00 559.42,618.00 C560.41,618.00 560.05,597.24 558.93,589.69 C555.63,567.43 545.30,546.49 529.57,530.16 C488.76,487.78 414.59,474.25 348.34,497.10 C300.81,513.49 270.54,543.35 260.41,583.87 C257.79,594.33 256.26,613.56 257.42,621.31 C257.73,623.39 257.80,624.68 258.43,625.07 C258.96,625.40 259.89,625.10 261.69,624.10 C259.36,625.71 258.00,626.93 258.00,627.56 C258.00,630.42 261.24,642.60 264.04,650.28 C273.79,676.98 297.75,701.67 327.33,715.49 C357.16,729.44 394.11,735.42 429.28,732.00 ZM 648.57 479.40 C651.83,480.19 658.86,480.87 664.20,480.92 C676.78,481.02 686.84,478.00 697.43,470.92 C716.56,458.13 727.08,437.15 725.73,414.49 C724.75,398.07 718.57,384.57 706.50,372.49 C694.49,360.48 680.51,354.60 664.00,354.62 C646.56,354.65 632.32,360.63 619.83,373.17 C607.38,385.68 601.00,400.91 601.00,418.16 C601.00,429.70 602.35,435.77 607.19,445.89 C614.92,462.09 631.07,475.17 648.57,479.40 ZM 609.13 624.65 C625.25,617.33 638.68,614.12 656.57,613.30 C678.34,612.31 698.64,615.98 715.78,624.02 C720.45,626.21 724.50,628.00 724.78,628.00 C725.57,628.00 724.00,600.73 722.41,587.00 C721.12,575.85 717.18,556.48 716.37,557.30 C716.20,557.47 712.33,553.95 707.78,549.47 C712.33,553.95 715.72,556.64 715.38,555.52 C712.24,545.08 700.10,530.94 689.40,525.28 C672.07,516.09 650.04,517.27 633.40,528.27 C618.66,538.01 605.82,559.16 608.40,569.45 C608.81,571.07 609.35,571.89 610.14,571.80 C608.77,572.24 608.07,570.51 607.91,566.67 C607.74,562.52 605.07,574.58 603.52,586.47 C601.90,598.92 600.29,628.00 601.22,628.00 C601.51,628.00 605.07,626.49 609.13,624.65 ZM 162.00 625.18 C166.12,623.52 172.97,621.45 177.21,620.58 C186.19,618.74 207.31,618.47 215.20,620.09 C221.13,621.31 232.52,625.18 236.98,627.49 C238.59,628.32 240.22,629.00 240.61,629.00 C241.58,629.00 240.20,585.18 238.96,576.50 C237.21,564.30 232.31,548.00 230.39,548.00 C230.21,548.00 230.16,548.18 230.23,548.44 L 229.56 547.17 C227.33,542.91 219.89,536.26 215.00,534.15 C201.07,528.11 184.05,531.82 173.41,543.20 C168.95,547.96 165.32,555.13 163.76,561.07 C164.00,559.50 164.27,558.15 164.48,557.50 C165.90,553.10 161.68,561.61 159.96,566.63 C155.00,581.03 149.69,630.15 153.25,628.71 C153.94,628.43 157.88,626.84 162.00,625.18 ZM 583.33 674.06 C590.03,677.11 591.00,676.76 591.00,671.30 C591.00,668.72 591.50,661.48 592.11,655.22 L 593.22 643.84 L 590.57 641.08 C586.94,637.28 586.61,633.90 587.92,613.88 C590.24,578.53 593.04,562.58 599.47,548.13 C602.83,540.56 602.87,540.26 604.96,511.50 C606.11,495.55 607.26,481.57 607.51,480.42 C607.81,478.99 606.85,477.28 604.40,474.92 C602.44,473.04 599.21,468.86 597.20,465.63 C593.58,459.77 593.56,459.76 592.88,462.63 C592.50,464.21 591.45,474.95 590.54,486.50 C589.63,498.05 587.58,522.12 585.97,540.00 C581.71,587.56 578.24,629.08 576.84,649.13 C575.43,669.41 575.75,670.62 583.33,674.06 ZM 729.79 643.42 L 730.50 675.99 L 733.29 676.00 C737.38,676.00 743.74,672.41 745.43,669.14 C746.72,666.64 746.73,663.75 745.46,645.40 C744.67,633.90 743.57,617.30 743.02,608.50 C742.47,599.70 741.80,589.35 741.52,585.50 C740.86,576.37 739.23,551.06 738.53,539.00 C737.51,521.53 734.01,471.57 733.40,465.72 L 732.80 459.93 L 729.80 464.72 C728.16,467.35 724.88,471.52 722.51,474.00 L 718.21 478.50 L 720.15 508.00 L 722.09 537.50 L 725.51 545.00 C732.82,561.01 736.54,583.02 737.68,616.90 C738.37,637.72 737.96,639.69 732.34,642.25 ZM 303.00 500.99 C303.00,503.17 303.04,503.17 308.03,500.35 C312.84,497.63 313.19,497.13 315.95,489.16 C323.39,467.64 341.24,447.43 362.00,437.00 C378.44,428.75 394.96,425.37 414.41,426.30 C428.78,426.98 437.77,429.28 450.50,435.50 C468.67,444.39 483.16,458.87 492.17,477.17 C494.70,482.30 497.04,487.40 497.38,488.50 C497.87,490.13 506.43,496.00 508.31,496.00 C508.59,496.00 508.24,493.86 507.54,491.25 C499.91,463.01 481.23,440.54 454.50,427.47 C439.93,420.35 429.93,417.86 413.50,417.26 C369.87,415.66 330.71,437.88 312.11,474.78 C308.48,481.98 303.00,497.74 303.00,500.99 ZM 579.56 457.89 C580.39,447.78 581.49,431.61 582.01,421.97 C583.02,402.89 585.23,392.66 591.05,380.12 L 594.01 373.75 L 590.76 374.39 C585.33,375.46 577.41,379.82 571.88,384.80 C550.49,404.00 547.36,437.21 564.50,462.99 C568.74,469.38 576.66,477.67 577.61,476.72 C577.85,476.48 578.73,468.01 579.56,457.89 ZM 753.64 470.75 C764.23,459.79 769.96,446.44 770.76,430.87 C771.87,409.32 763.50,390.73 748.12,380.63 C742.67,377.05 732.00,372.28 732.00,373.42 C732.00,373.59 733.79,377.55 735.98,382.22 C741.61,394.23 742.93,401.21 744.03,424.79 C744.57,436.18 745.44,451.35 745.97,458.50 C746.51,465.65 746.95,472.51 746.97,473.75 C746.99,474.99 747.35,476.00 747.78,476.00 C748.22,476.00 750.85,473.64 753.64,470.75 ZM 707.68 344.92 C706.37,333.92 696.81,320.48 686.16,314.68 C680.36,311.53 670.38,309.04 663.46,309.01 C642.63,308.95 622.09,324.86 619.20,343.29 C618.71,346.43 618.47,349.00 618.67,349.00 C618.87,349.00 621.39,347.68 624.27,346.06 C639.27,337.62 658.43,334.19 674.57,337.05 C683.34,338.60 694.70,342.57 701.50,346.45 C704.80,348.33 707.68,349.90 707.89,349.93 C708.10,349.97 708.01,347.72 707.68,344.92 ZM 598.00 352.12 C601.03,353.09 603.84,353.92 604.25,353.95 C604.66,353.98 605.00,351.56 605.00,348.58 C605.00,343.27 604.93,343.14 601.75,342.46 C593.61,340.69 586.72,335.84 572.01,321.51 C563.94,313.65 555.44,306.24 553.12,305.06 C546.41,301.64 538.78,300.63 529.94,302.01 C519.63,303.61 519.52,303.71 521.90,309.27 L 523.87 313.87 L 527.69 312.82 C532.94,311.37 544.75,312.29 549.00,314.48 C550.92,315.47 558.12,321.75 565.00,328.43 C582.61,345.55 586.66,348.46 598.00,352.12 ZM 722.00 351.64 C722.00,353.75 722.33,353.96 724.75,353.38 C730.47,352.03 739.26,347.98 743.80,344.61 C746.38,342.70 753.67,335.87 760.00,329.46 C773.65,315.60 779.74,312.00 789.51,312.00 C792.81,312.00 797.00,312.43 798.81,312.95 C801.56,313.73 802.19,313.61 802.60,312.20 C802.88,311.26 803.78,309.19 804.60,307.59 C806.48,303.93 805.97,303.59 796.39,302.05 C787.55,300.62 780.16,301.79 772.50,305.84 C769.63,307.36 761.54,314.27 753.50,322.08 C738.84,336.31 733.67,340.04 725.67,342.17 C721.07,343.40 720.87,343.60 721.42,346.35 C721.74,347.95 722.00,350.33 722.00,351.64 ZM 629.77 750.78 C630.70,751.48 632.15,751.92 632.98,751.76 C634.21,751.52 634.45,749.96 634.25,743.48 C634.12,739.09 633.85,713.92 633.66,687.55 C633.35,644.19 633.16,639.50 631.66,638.56 C629.46,637.17 626.82,638.84 625.93,642.17 C624.49,647.55 623.91,686.51 624.93,709.00 C626.26,738.36 627.50,749.06 629.77,750.78 ZM 690.15 750.68 C691.53,752.35 694.44,752.39 695.77,750.75 C698.15,747.82 699.50,723.04 699.50,682.17 C699.50,642.44 699.43,640.78 697.56,639.42 C695.99,638.27 695.27,638.24 693.74,639.26 C691.94,640.45 691.83,642.67 691.54,684.01 C691.37,707.93 690.74,732.42 690.14,738.43 C689.35,746.36 689.35,749.71 690.15,750.68 ZM 187.67 744.53 C189.47,746.33 191.44,746.42 192.71,744.75 C193.31,743.97 193.45,724.27 193.09,692.00 L 192.50 640.50 L 189.82 640.19 C184.66,639.59 184.50,640.89 184.54,683.00 C184.59,726.18 185.41,742.27 187.67,744.53 ZM 535.43 700.00 L 528.21 707.00 L 589.00 707.00 L 589.00 693.00 L 542.65 693.00 ZM 632.17 420.35 C629.71,422.57 627.43,422.43 624.88,419.88 C623.08,418.08 622.84,416.98 623.34,412.80 C624.61,402.09 633.69,389.21 643.88,383.66 C648.45,381.18 659.71,378.06 664.30,378.02 C666.25,378.00 671.00,382.24 671.00,384.00 C671.00,384.60 669.90,386.20 668.55,387.55 C666.70,389.39 665.02,390.00 661.80,390.00 C655.45,390.00 646.16,394.75 641.59,400.32 C637.89,404.84 634.00,413.31 634.00,416.86 C634.00,417.86 633.18,419.43 632.17,420.35 ZM 244.00 693.00 L 244.00 707.00 L 287.45 707.00 L 273.55 693.00 ZM 468.20 235.81 C470.24,239.62 473.65,240.11 474.89,236.76 C477.36,230.08 468.01,217.62 456.63,212.43 C451.61,210.13 449.82,209.82 444.13,210.22 C433.74,210.97 426.83,215.68 430.60,219.46 C431.82,220.67 433.07,220.87 435.85,220.28 C441.48,219.08 448.47,219.53 453.37,221.40 C458.02,223.17 465.16,230.11 468.20,235.81 ZM 845.01 234.51 C846.61,236.44 848.60,236.40 850.21,234.40 C856.10,227.11 860.75,222.88 864.39,221.49 C869.29,219.62 876.55,219.19 883.24,220.38 C887.30,221.10 888.07,220.97 888.65,219.48 C890.31,215.14 882.35,210.04 873.88,210.02 C863.61,209.99 853.66,215.26 848.08,223.70 C844.25,229.48 843.38,232.54 845.01,234.51 ZM 244.00 662.00 L 244.00 680.00 L 264.14 680.00 L 262.01 677.02 C259.03,672.82 251.53,656.60 249.41,649.75 C248.10,645.51 247.16,644.00 245.82,644.00 C244.13,644.00 244.00,645.27 244.00,662.00 ZM 553.00 679.63 C553.00,679.83 556.67,680.00 561.15,680.00 C568.92,680.00 569.23,679.91 567.69,678.21 C565.09,675.33 563.00,669.39 562.98,664.78 L 562.96 660.50 L 557.98 669.88 C555.24,675.04 553.00,679.43 553.00,679.63 ZM 609.04 366.92 C608.18,368.53 609.80,367.53 613.89,363.92 C624.37,354.66 634.99,349.06 648.95,345.43 C651.96,344.64 655.87,344.00 657.65,344.00 C659.43,344.00 661.18,343.52 661.54,342.94 C662.47,341.43 651.32,342.69 642.05,345.14 C628.54,348.70 613.46,358.65 609.04,366.92 ZM 438.21 582.07 C403.95,580.06 368.57,583.56 335.62,592.33 C340.74,590.95 345.88,589.69 351.00,588.60 C379.79,582.42 409.52,580.33 438.21,582.07 ZM 299.37 604.61 C290.14,608.52 279.90,613.55 271.92,617.96 C280.04,613.24 289.36,608.73 299.37,604.61 ZM 185.23 548.72 C187.76,546.62 190.36,544.90 192.71,543.88 C195.78,542.54 199.04,541.69 202.38,541.33 C196.27,542.13 190.42,544.64 185.23,548.72 ZM 552.86 614.50 L 549.55 612.66 C544.72,609.98 540.16,607.61 535.69,605.46 C541.24,608.04 546.58,610.83 551.70,613.82 C552.09,614.05 552.48,614.28 552.86,614.50 ZM 163.99 570.48 C164.06,570.58 164.14,570.66 164.22,570.75 C163.80,570.35 163.51,569.89 163.33,569.29 C163.50,569.75 163.71,570.15 163.99,570.48 Z" fill="rgb(44,60,75)"/>
<path d="M 0.00 512.00 L 0.00 0.00 L 512.00 0.00 L 1024.00 0.00 L 1024.00 512.00 L 1024.00 1024.00 L 512.00 1024.00 L 0.00 1024.00 L 0.00 512.00 ZM 678.54 808.47 C688.47,805.92 695.00,802.15 702.61,794.58 C713.39,783.84 719.26,770.43 724.44,744.63 C727.01,731.80 730.00,705.39 730.00,695.44 L 730.00 690.20 L 737.42 688.55 C745.45,686.76 751.11,683.36 755.30,677.82 C760.35,671.13 760.34,671.90 756.02,607.00 C755.46,598.47 754.10,577.55 753.01,560.50 C751.91,543.45 750.57,522.97 750.03,515.00 C748.36,490.73 748.08,492.24 755.14,487.00 C767.80,477.60 778.01,461.48 782.08,444.46 C783.85,437.05 784.13,433.59 783.69,424.50 C783.07,411.65 781.28,404.17 776.53,394.50 C770.00,381.23 758.07,369.46 745.49,363.89 L 740.75 361.80 L 747.13 357.78 C750.63,355.57 759.80,347.56 767.50,339.98 C783.48,324.26 785.85,323.00 795.57,325.01 C800.61,326.06 801.00,326.35 801.00,328.99 C801.00,330.61 802.13,333.19 803.62,334.96 C810.63,343.29 822.59,343.89 829.77,336.28 L 833.10 332.75 L 862.80 339.53 C902.68,348.64 902.20,348.56 906.89,347.15 C920.23,343.15 922.59,323.50 910.78,314.68 C908.70,313.14 900.10,311.59 867.99,306.99 C840.95,303.11 827.33,300.76 826.37,299.80 C825.13,298.56 826.32,297.08 835.40,288.67 L 845.86 278.96 L 849.61 281.51 C856.17,285.96 865.92,288.30 875.95,287.82 C883.35,287.46 885.80,286.88 891.35,284.15 C906.75,276.57 916.72,262.11 917.73,245.87 C918.72,229.85 914.23,218.05 903.33,208.06 C895.28,200.69 888.61,197.90 877.41,197.24 C863.69,196.43 851.85,201.17 842.27,211.31 C828.50,225.87 825.24,246.83 834.06,264.13 C836.54,268.98 837.49,267.59 821.71,282.26 L 810.93 292.29 L 803.43 290.65 C789.29,287.54 777.52,288.97 765.58,295.27 C761.26,297.55 755.47,302.49 745.53,312.38 C732.12,325.74 724.92,330.96 719.85,330.99 C718.87,331.00 716.87,328.65 714.96,325.25 C708.25,313.32 694.44,302.55 680.50,298.38 C672.41,295.96 655.76,295.97 647.50,298.41 C632.84,302.73 619.42,312.71 612.62,324.36 C610.35,328.23 608.06,331.00 607.12,330.99 C606.23,330.98 603.08,329.85 600.11,328.47 C596.23,326.66 590.66,322.00 580.11,311.73 C565.01,297.01 559.20,292.94 549.65,290.39 C542.44,288.48 531.90,288.68 522.52,290.92 L 514.55 292.83 L 506.25 285.78 C501.68,281.91 494.99,275.98 491.38,272.62 L 484.81 266.50 L 486.92 261.18 C496.08,238.04 486.38,212.22 464.45,201.38 C451.69,195.07 437.65,195.54 423.81,202.72 C406.84,211.52 396.53,231.96 399.71,250.52 C403.36,271.80 418.64,285.86 441.00,288.50 C450.64,289.64 462.41,286.22 473.66,279.02 C475.68,277.72 476.49,278.21 486.16,286.48 C501.00,299.17 499.76,297.71 497.47,299.85 C495.96,301.26 491.53,302.19 478.50,303.84 C436.02,309.24 410.92,312.99 408.32,314.34 C402.74,317.22 399.00,323.61 399.00,330.24 C399.00,335.41 402.40,342.58 406.14,345.30 C411.78,349.41 415.20,349.00 466.50,338.01 C471.45,336.95 479.20,335.31 483.73,334.37 L 491.95 332.67 L 494.06 335.35 C497.25,339.40 501.78,341.32 508.19,341.33 C516.46,341.34 521.53,337.10 524.36,327.83 C524.69,326.75 526.81,325.77 530.37,325.03 C539.92,323.04 542.43,324.33 557.42,338.84 C571.83,352.81 575.14,355.53 582.42,359.35 C586.46,361.46 587.00,362.04 585.42,362.56 C578.42,364.84 568.50,370.72 562.72,376.02 C530.25,405.77 534.24,461.66 570.69,487.67 C576.38,491.73 577.12,492.63 576.67,494.90 C576.39,496.33 574.69,514.02 572.88,534.22 C571.08,554.42 569.39,570.73 569.14,570.47 C568.88,570.21 567.62,567.02 566.35,563.38 C559.90,544.94 544.74,523.49 529.25,510.89 C524.29,506.85 523.00,505.23 523.00,503.01 C523.00,497.93 517.29,477.50 513.70,469.73 C505.71,452.43 490.06,434.14 474.31,423.70 C438.82,400.16 394.29,397.62 354.50,416.87 C318.10,434.48 295.18,465.56 288.51,506.34 L 287.07 515.18 L 278.28 524.38 C268.35,534.80 261.43,544.61 255.31,556.97 C252.88,561.87 250.90,564.83 250.62,563.97 C250.36,563.16 249.39,559.82 248.48,556.55 C238.98,522.39 203.55,508.01 173.43,526.10 C161.55,533.23 150.97,549.02 146.04,567.00 C141.38,583.98 136.77,631.16 139.11,637.89 C140.29,641.26 144.37,644.00 148.20,644.00 L 150.50 644.00 L 150.14 667.12 C149.38,715.96 153.70,754.24 162.05,772.74 C165.19,779.71 173.59,789.25 178.99,791.99 C188.66,796.88 205.36,797.28 215.02,792.84 C222.32,789.48 226.56,785.74 231.19,778.59 C237.20,769.29 240.32,756.99 243.09,731.75 L 244.27 721.00 L 275.66 721.00 L 307.04 721.00 L 315.77 725.36 C334.20,734.58 352.72,740.45 376.50,744.61 C390.61,747.09 426.50,747.12 440.46,744.68 C463.15,740.70 482.39,734.52 498.89,725.90 L 508.29 721.00 L 548.54 721.00 L 588.80 721.00 L 589.96 725.83 C591.50,732.27 594.29,736.65 598.38,739.06 C601.33,740.80 601.89,741.82 602.93,747.27 C604.88,757.59 609.96,773.07 613.83,780.47 C621.14,794.43 634.20,804.92 648.64,808.42 C656.55,810.33 671.19,810.36 678.54,808.47 ZM 629.77 750.78 C627.50,749.06 626.26,738.36 624.93,709.00 C623.91,686.51 624.49,647.55 625.93,642.17 C626.82,638.84 629.46,637.17 631.66,638.56 C633.16,639.50 633.35,644.19 633.66,687.55 C633.85,713.92 634.12,739.09 634.25,743.48 C634.45,749.96 634.21,751.52 632.98,751.76 C632.15,751.92 630.70,751.48 629.77,750.78 ZM 690.15 750.68 C689.35,749.71 689.35,746.36 690.14,738.43 C690.74,732.42 691.37,707.93 691.54,684.01 C691.83,642.67 691.94,640.45 693.74,639.26 C695.27,638.24 695.99,638.27 697.56,639.42 C699.43,640.78 699.50,642.44 699.50,682.17 C699.50,723.04 698.15,747.82 695.77,750.75 C694.44,752.39 691.53,752.35 690.15,750.68 ZM 187.67 744.53 C185.41,742.27 184.59,726.18 184.54,683.00 C184.50,640.89 184.66,639.59 189.82,640.19 L 192.50 640.50 L 193.09 692.00 C193.45,724.27 193.31,743.97 192.71,744.75 C191.44,746.42 189.47,746.33 187.67,744.53 ZM 244.00 700.00 L 244.00 693.00 L 258.78 693.00 L 273.55 693.00 L 280.50 700.00 L 287.45 707.00 L 265.72 707.00 L 244.00 707.00 L 244.00 700.00 ZM 535.43 700.00 L 542.65 693.00 L 565.83 693.00 L 589.00 693.00 L 589.00 700.00 L 589.00 707.00 L 558.61 707.00 L 528.21 707.00 L 535.43 700.00 ZM 244.00 662.00 C244.00,645.27 244.13,644.00 245.82,644.00 C247.16,644.00 248.10,645.51 249.41,649.75 C251.53,656.60 259.03,672.82 262.01,677.02 L 264.14 680.00 L 254.07 680.00 L 244.00 680.00 L 244.00 662.00 ZM 553.00 679.63 C553.00,679.43 555.24,675.04 557.98,669.88 L 562.96 660.50 L 562.98 664.78 C563.00,669.39 565.09,675.33 567.69,678.21 C569.23,679.91 568.92,680.00 561.15,680.00 C556.67,680.00 553.00,679.83 553.00,679.63 ZM 583.33 674.06 C575.75,670.62 575.43,669.41 576.84,649.13 C578.24,629.08 581.71,587.56 585.97,540.00 C587.58,522.12 589.63,498.05 590.54,486.50 C591.45,474.95 592.50,464.21 592.88,462.63 C593.56,459.76 593.58,459.77 597.20,465.63 C599.21,468.86 602.44,473.04 604.40,474.92 C606.85,477.28 607.81,478.99 607.51,480.42 C607.26,481.57 606.11,495.55 604.96,511.50 C602.87,540.26 602.83,540.56 599.47,548.13 C593.04,562.58 590.24,578.53 587.92,613.88 C586.61,633.90 586.94,637.28 590.57,641.08 L 593.22 643.84 L 592.11 655.22 C591.50,661.48 591.00,668.72 591.00,671.30 C591.00,676.76 590.03,677.11 583.33,674.06 ZM 730.15 659.70 L 729.79 643.42 L 732.34 642.25 C737.96,639.69 738.37,637.72 737.68,616.90 C736.54,583.02 732.82,561.01 725.51,545.00 L 722.09 537.50 L 720.15 508.00 L 718.21 478.50 L 722.51 474.00 C724.88,471.52 728.16,467.35 729.80,464.72 L 732.80 459.93 L 733.40 465.72 C734.01,471.57 737.51,521.53 738.53,539.00 C739.23,551.06 740.86,576.37 741.52,585.50 C741.80,589.35 742.47,599.70 743.02,608.50 C743.57,617.30 744.67,633.90 745.46,645.40 C746.73,663.75 746.72,666.64 745.43,669.14 C743.74,672.41 737.38,676.00 733.29,676.00 L 730.50 675.99 L 730.15 659.70 ZM 292.07 637.37 C290.93,635.92 290.00,634.18 290.00,633.50 C290.00,626.88 320.84,612.93 349.59,606.55 C364.38,603.26 368.83,603.41 370.97,607.25 C372.33,609.70 372.34,610.29 371.00,612.68 C369.67,615.05 368.24,615.62 358.50,617.65 C341.96,621.11 323.85,627.22 310.16,633.96 C303.41,637.28 297.05,640.00 296.02,640.00 C294.99,640.00 293.21,638.81 292.07,637.37 ZM 257.42 621.31 C256.26,613.56 257.79,594.33 260.41,583.87 C270.54,543.35 300.81,513.49 348.34,497.10 C414.59,474.25 488.76,487.78 529.57,530.16 C545.30,546.49 555.63,567.43 558.93,589.69 C560.05,597.24 560.41,618.00 559.42,618.00 C559.11,618.00 555.63,616.12 551.70,613.82 C498.91,582.99 422.11,573.34 351.00,588.60 C321.04,595.03 290.13,606.76 268.76,619.84 C257.41,626.78 258.22,626.67 257.42,621.31 ZM 163.99 570.48 C160.61,566.41 165.82,551.31 173.41,543.20 C184.05,531.82 201.07,528.11 215.00,534.15 C219.89,536.26 227.33,542.91 229.56,547.17 L 230.97 549.83 L 225.44 546.51 C215.32,540.41 202.93,539.42 192.71,543.88 C186.02,546.79 177.39,555.28 173.78,562.50 C169.10,571.84 166.72,573.78 163.99,570.48 ZM 608.40 569.45 C605.82,559.16 618.66,538.01 633.40,528.27 C650.04,517.27 672.07,516.09 689.40,525.28 C700.10,530.94 712.24,545.08 715.38,555.52 C715.72,556.65 712.32,553.94 707.75,549.44 C691.79,533.76 673.42,527.98 654.02,532.56 C639.44,535.99 626.34,546.72 617.03,562.85 C611.59,572.28 609.51,573.87 608.40,569.45 ZM 303.00 500.99 C303.00,497.74 308.48,481.98 312.11,474.78 C330.71,437.88 369.87,415.66 413.50,417.26 C429.93,417.86 439.93,420.35 454.50,427.47 C481.23,440.54 499.91,463.01 507.54,491.25 C508.24,493.86 508.59,496.00 508.31,496.00 C506.43,496.00 497.87,490.13 497.38,488.50 C497.04,487.40 494.70,482.30 492.17,477.17 C483.16,458.87 468.67,444.39 450.50,435.50 C437.77,429.28 428.78,426.98 414.41,426.30 C394.96,425.37 378.44,428.75 362.00,437.00 C341.24,447.43 323.39,467.64 315.95,489.16 C313.19,497.13 312.84,497.63 308.03,500.35 C303.04,503.17 303.00,503.17 303.00,500.99 ZM 648.57 479.40 C631.07,475.17 614.92,462.09 607.19,445.89 C602.35,435.77 601.00,429.70 601.00,418.16 C601.00,400.91 607.38,385.68 619.83,373.17 C632.32,360.63 646.56,354.65 664.00,354.62 C680.51,354.60 694.49,360.48 706.50,372.49 C718.57,384.57 724.75,398.07 725.73,414.49 C727.08,437.15 716.56,458.13 697.43,470.92 C686.84,478.00 676.78,481.02 664.20,480.92 C658.86,480.87 651.83,480.19 648.57,479.40 ZM 632.17 420.35 C633.18,419.43 634.00,417.86 634.00,416.86 C634.00,413.31 637.89,404.84 641.59,400.32 C646.16,394.75 655.45,390.00 661.80,390.00 C665.02,390.00 666.70,389.39 668.55,387.55 C669.90,386.20 671.00,384.60 671.00,384.00 C671.00,382.24 666.25,378.00 664.30,378.02 C659.71,378.06 648.45,381.18 643.88,383.66 C633.69,389.21 624.61,402.09 623.34,412.80 C622.84,416.98 623.08,418.08 624.88,419.88 C627.43,422.43 629.71,422.57 632.17,420.35 ZM 609.04 366.92 C613.46,358.65 628.54,348.70 642.05,345.14 C651.32,342.69 662.47,341.43 661.54,342.94 C661.18,343.52 659.43,344.00 657.65,344.00 C655.87,344.00 651.96,344.64 648.95,345.43 C634.99,349.06 624.37,354.66 613.89,363.92 C609.80,367.53 608.18,368.53 609.04,366.92 ZM 598.00 352.12 C586.66,348.46 582.61,345.55 565.00,328.43 C558.12,321.75 550.92,315.47 549.00,314.48 C544.75,312.29 532.94,311.37 527.69,312.82 L 523.87 313.87 L 521.90 309.27 C519.52,303.71 519.63,303.61 529.94,302.01 C538.78,300.63 546.41,301.64 553.12,305.06 C555.44,306.24 563.94,313.65 572.01,321.51 C586.72,335.84 593.61,340.69 601.75,342.46 C604.93,343.14 605.00,343.27 605.00,348.58 C605.00,351.56 604.66,353.98 604.25,353.95 C603.84,353.92 601.03,353.09 598.00,352.12 ZM 722.00 351.64 C722.00,350.33 721.74,347.95 721.42,346.35 C720.87,343.60 721.07,343.40 725.67,342.17 C733.67,340.04 738.84,336.31 753.50,322.08 C761.54,314.27 769.63,307.36 772.50,305.84 C780.16,301.79 787.55,300.62 796.39,302.05 C805.97,303.59 806.48,303.93 804.60,307.59 C803.78,309.19 802.88,311.26 802.60,312.20 C802.19,313.61 801.56,313.73 798.81,312.95 C797.00,312.43 792.81,312.00 789.51,312.00 C779.74,312.00 773.65,315.60 760.00,329.46 C753.67,335.87 746.38,342.70 743.80,344.61 C739.26,347.98 730.47,352.03 724.75,353.38 C722.33,353.96 722.00,353.75 722.00,351.64 ZM 468.20 235.81 C465.16,230.11 458.02,223.17 453.37,221.40 C448.47,219.53 441.48,219.08 435.85,220.28 C433.07,220.87 431.82,220.67 430.60,219.46 C426.83,215.68 433.74,210.97 444.13,210.22 C449.82,209.82 451.61,210.13 456.63,212.43 C468.01,217.62 477.36,230.08 474.89,236.76 C473.65,240.11 470.24,239.62 468.20,235.81 ZM 845.01 234.51 C843.38,232.54 844.25,229.48 848.08,223.70 C853.66,215.26 863.61,209.99 873.88,210.02 C882.35,210.04 890.31,215.14 888.65,219.48 C888.07,220.97 887.30,221.10 883.24,220.38 C876.55,219.19 869.29,219.62 864.39,221.49 C860.75,222.88 856.10,227.11 850.21,234.40 C848.60,236.40 846.61,236.44 845.01,234.51 Z" fill="rgb(252,251,247)"/>
</g>
</svg>